# AST/ASF file generated using VICON BodyLanguage
# -----------------------------------------------
:version 1.10
:name VICON
:units
  mass 1.0
  length 0.45
  angle deg
:documentation
   .ast/.asf automatically generated from VICON data using
   VICON BodyBuilder and BodyLanguage model FoxedUp or BRILLIANT.MOD
:root
   order TX TY TZ RX RY RZ
   axis XYZ
   position 0 0 0  
   orientation 0 0 0 
:bonedata
  begin
     id 1 
     name lhipjoint
     direction 0.693937 -0.600361 0.397515 
     length 2.37164 
     axis 0 0 0  XYZ
  end
  begin
     id 2 
     name lfemur
     direction 0.34202 -0.939693 0  
     length 6.18497  
     axis 0 0 20  XYZ
    dof rx ry rz
    limits (-160.0 20.0)
           (-70.0 70.0)
           (-60.0 70.0)
  end
  begin
     id 3 
     name ltibia
     direction 0.34202 -0.939693 0   
     length 6.91601   
     axis 0 0 20   XYZ
    dof rx
    limits (-10.0 170.0)
  end
  begin
     id 4 
     name lfoot
     direction 0.0978718 -0.2689 0.958182   
     length 1.81453   
     axis -90 7.62852e-016 20   XYZ
    dof rx rz
    limits (-45.0 90.0)
           (-70.0 20.0)
  end
  begin
     id 5 
     name ltoes
     direction 1.53569e-011 -4.21951e-011 1   
     length 0.912052   
     axis -90 7.62852e-016 20   XYZ
    dof rx
    limits (-90.0 20.0)
  end
  begin
     id 6 
     name rhipjoint
     direction -0.643996 -0.637876 0.422354   
     length 2.23216  
     axis 0 0 0  XYZ 
  end
  begin
     id 7 
     name rfemur
     direction -0.34202 -0.939693 0   
     length 6.15404   
     axis 0 0 -20   XYZ
    dof rx ry rz
    limits (-160.0 20.0)
           (-70.0 70.0)
           (-70.0 60.0)
  end
  begin
     id 8 
     name rtibia
     direction -0.34202 -0.939693 0   
     length 6.86744   
     axis 0 0 -20   XYZ
    dof rx
    limits (-10.0 170.0)
 end
 begin
     id 9 
     name rfoot
     direction -0.118701 -0.326127 0.937844   
     length 1.9243  
     axis -90 -7.62852e-016 -20   XYZ
    dof rx rz
    limits (-45.0 90.0)
           (-20.0 70.0)
  end
  begin
     id 10 
     name rtoes
     direction -1.5356e-011 -4.2181e-011 1   
     length 0.958865   
     axis -90 -7.62852e-016 -20   XYZ
    dof rx
    limits (-90.0 20.0)
  end
  begin
     id 11 
     name lowerback
     direction 0.0310826 0.968686 -0.246334   
     length 2.00021   
     axis 0 0 0   XYZ
    dof rx ry rz
    limits (-20.0 45.0)
           (-30.0 30.0)
           (-30.0 30.0)
  end
  begin
     id 12 
     name upperback
     direction -0.0152834 0.999474 -0.0286152   
     length 2.03728   
     axis 0 0 0   XYZ
    dof rx ry rz
    limits (-20.0 45.0)
           (-30.0 30.0)
           (-30.0 30.0)
  end
  begin
     id 13 
     name thorax
     direction -0.0323701 0.996236 0.0804149   
     length 2.16   
     axis 0 0 0   XYZ
    dof rx ry rz
    limits (-20.0 45.0)
           (-30.0 30.0)
           (-30.0 30.0)
  end
  begin
     id 14 
     name lowerneck
     direction 0.0307935 0.982251 0.185027   
     length 1.43558   
     axis 0 0 0   XYZ
    dof rx ry rz
    limits (-20.0 45.0)
           (-30.0 30.0)
           (-30.0 30.0)
  end
  begin
     id 15 
     name upperneck
     direction -0.0927153 0.994775 0.0427454   
     length 1.44603   
     axis 0 0 0   XYZ
    dof rx ry rz
    limits (-20.0 45.0)
           (-30.0 30.0)
           (-30.0 30.0)
  end
  begin
     id 16
     name head
     direction -0.0341265 0.999406 -0.00472033  
     length 1.45931  
     axis 0 0 0   XYZ
    dof rx ry rz
    limits (-20.0 45.0)
           (-30.0 30.0)
           (-30.0 30.0)
  end
  begin
     id 17 
     name lclavicle
     direction 0.820755 0.555306 -0.134151  
     length 2.66075  
     axis 0 0 0   XYZ
    dof ry rz
    limits (-20.0 10.0)
           (0.0 20.0)
  end
  begin
     id 18 
     name lhumerus
     direction 1 -4.48971e-011 5.24853e-027   
     length 5.0546   
     axis -180 -30 -90   XYZ
    dof rx ry rz
    limits (-60.0 90.0)
           (-90.0 90.0)
           (-90.0 90.0)
  end
  begin
     id 19
     name lradius
     direction 1 -4.48971e-011 2.76575e-028   
     length 3.39013   
     axis -180 -30 -90   XYZ
    dof rx
    limits (-10.0 170.0)
  end
  begin
     id 20
     name lwrist
     direction 1 -4.48939e-011 -2.27826e-027   
     length 1.69507   
     axis 2.17013e-015 90 90   XYZ
    dof ry
    limits (-180.0 0.0)
 end
  begin
     id 21 
     name lhand
     direction 1 -4.49009e-011 -4.55652e-027   
     length 0.572425   
     axis 2.90745e-015 90 90   XYZ
    dof rx rz
    limits (-90.0 90.0)
           (-45.0 45.0)
  end
  begin
     id 22 
     name lfingers
     direction 1 -4.48955e-011 -9.11303e-027   
     length 0.461504   
     axis 5.81489e-015 90 90   XYZ
    dof rx
    limits (0.0 90.0)
  end
  begin
     id 23
     name lthumb
     direction 0.707107 -6.34929e-011 0.707107   
     length 0.66263   
     axis -90 45 2.85299e-015   XYZ
    dof rx rz
    limits (-45.0 45.0)
           (-45.0 45.0)
  end
  begin
     id 24 
     name rclavicle
     direction -0.754477 0.632921 -0.173712   
     length 2.73081  
     axis 0 0 0   XYZ 
    dof ry rz
    limits (-10.0 20.0)
           (-20.0 0.0)
  end
  begin
     id 25 
     name rhumerus
     direction -1 -4.48969e-011 5.1496e-027  
     length 5.0701   
     axis -180 30 90   XYZ
    dof rx ry rz
    limits (-90.0 60.0)
           (-90.0 90.0)
           (-90.0 90.0)
  end
  begin
     id 26 
     name rradius
     direction -1 -4.48967e-011 -7.15624e-028   
     length 3.14957   
     axis -180 30 90   XYZ
    dof rx
    limits (-10.0 170.0)
  end
  begin
     id 27 
     name rwrist
     direction -1 -4.48938e-011 -2.27826e-027   
     length 1.57479   
     axis 2.17013e-015 -90 -90   XYZ
    dof ry
    limits (-180.0 0.0)
  end
  begin
     id 28
     name rhand
     direction -1 -4.49008e-011 -4.55652e-027   
     length 0.718191   
     axis 2.90745e-015 -90 -90   XYZ
    dof rx rz
    limits (-90.0 90.0)
           (-45.0 45.0)
  end
  begin
     id 29
     name rfingers
     direction -1 -4.48953e-011 -9.11303e-027   
     length 0.579024   
     axis 5.81489e-015 -90 -90   XYZ
    dof rx
    limits (0.0 90.0)
  end
  begin
     id 30
     name rthumb
     direction -0.707107 -6.34937e-011 0.707107   
     length 0.831366   
     axis -90 -45 -2.85299e-015   XYZ
    dof rx rz
    limits (-45.0 45.0)
           (-45.0 45.0)
  end
:hierarchy
  begin
    root lhipjoint rhipjoint lowerback
    lhipjoint lfemur
    lfemur ltibia
    ltibia lfoot
    lfoot ltoes
    rhipjoint rfemur
    rfemur rtibia
    rtibia rfoot
    rfoot rtoes
    lowerback upperback
    upperback thorax
    thorax lowerneck lclavicle rclavicle
    lowerneck upperneck
    upperneck head
    lclavicle lhumerus
    lhumerus lradius
    lradius lwrist
    lwrist lhand lthumb
    lhand lfingers
    rclavicle rhumerus
    rhumerus rradius
    rradius rwrist
    rwrist rhand rthumb
    rhand rfingers
  end

#!OML:ASF H:\Male1\Project 1\Capture day 1\Session 1\Male1.ASF
:FULLY-SPECIFIED
:DEGREES
93
root 1.54048 14.9809 3.52849 19.3215 -83.1175 -21.0701
lowerback 12.8255 0.512898 1.8233
upperback 11.2781 0.170269 0.216133
thorax 4.73571 -0.0791268 -0.831623
lowerneck -5.09446 4.38981 8.51113
upperneck 14.2381 5.79507 -6.44475
head 5.56187 2.79529 -3.04871
rclavicle 4.96962e-016 -1.23246e-014
rhumerus -30.7386 4.37759 -87.5602
rradius 45.7059
rwrist -25.419
rhand -20.158 -1.33553
rfingers 7.12502
rthumb 6.18724 -31.2252
lclavicle 4.96962e-016 -1.23246e-014
lhumerus 3.01072 -27.1694 85.5714
lradius 34.6715
lwrist 10.2731
lhand -10.8379 12.2917
lfingers 7.12502
lthumb 15.1766 41.7151
rfemur -19.5512 4.94305 29.599
rtibia 33.819
rfoot -16.8397 -18.3569
rtoes -16.4342
lfemur -23.1993 0.312057 -17.7623
ltibia 75.2535
lfoot -9.86571 8.42533
ltoes -18.9272
94
root 1.30821 14.9701 3.5618 24.4573 -83.528 -26.011
lowerback 13.3511 0.57632 2.03083
upperback 11.5318 0.239519 0.192594
thorax 4.7386 -0.0449795 -0.980912
lowerneck -4.78387 4.51296 8.7161
upperneck 13.8183 5.97454 -6.59954
head 5.40331 2.89056 -3.12361
rclavicle -1.0138e-014 1.64991e-014
rhumerus -30.3773 5.09608 -87.7211
rradius 47.3415
rwrist -25.8817
rhand -20.028 -1.13093
rfingers 7.12502
rthumb 6.31274 -31.0169
lclavicle -1.0138e-014 1.64991e-014
lhumerus 3.71946 -27.0344 85.1329
lradius 34.3955
lwrist 10.49
lhand -10.8028 12.5704
lfingers 7.12502
lthumb 15.2104 41.9913
rfemur -19.1607 5.07986 30.1626
rtibia 34.4859
rfoot -17.8517 -17.9524
rtoes -15.6277
lfemur -26.1102 -1.10991 -17.423
ltibia 74.6417
lfoot -10.8827 9.04278
ltoes -19.0667
95
root 1.0761 14.9537 3.59612 29.7763 -83.9085 -31.0929
lowerback 13.8696 0.632431 2.13608
upperback 11.7517 0.294186 0.146251
thorax 4.70852 -0.023251 -1.09619
lowerneck -4.4857 4.64172 8.94879
upperneck 13.4417 6.16065 -6.76659
head 5.26329 2.9893 -3.20677
rclavicle 1.0138e-014 1.98785e-015
rhumerus -30.1121 5.7371 -87.8587
rradius 49.0518
rwrist -26.4731
rhand -19.8632 -0.876345
rfingers 7.12502
rthumb 6.4719 -30.7575
lclavicle 1.0138e-014 1.98785e-015
lhumerus 4.37123 -26.8926 84.6636
lradius 34.1612
lwrist 10.6039
lhand -11.0009 12.7497
lfingers 7.12502
lthumb 15.0197 42.185
rfemur -18.8513 5.24133 30.646
rtibia 35.2305
rfoot -18.941 -17.5283
rtoes -14.3733
lfemur -28.7646 -2.72158 -17.0117
ltibia 73.1803
lfoot -11.8872 9.46627
ltoes -18.853
96
root 0.841942 14.9334 3.63141 34.7302 -84.3146 -35.7908
lowerback 14.3629 0.694678 2.07916
upperback 11.9625 0.342789 0.052528
thorax 4.6808 -0.0130153 -1.17047
lowerneck -4.21411 4.77036 9.18246
upperneck 13.0946 6.34198 -6.90608
head 5.13696 3.08686 -3.28164
rclavicle 1.63003e-014 1.59028e-015
rhumerus -29.9275 6.28401 -87.9777
rradius 50.8162
rwrist -27.2914
rhand -19.6783 -0.548719
rfingers 7.12502
rthumb 6.65036 -30.4243
lclavicle 1.63003e-014 1.59028e-015
lhumerus 4.99761 -26.7101 84.16
lradius 33.9752
lwrist 10.6488
lhand -11.2924 12.8032
lfingers 7.12502
lthumb 14.7388 42.2593
rfemur -18.5631 5.39615 30.9775
rtibia 36.0219
rfoot -19.9443 -17.1661
rtoes -13.6189
lfemur -31.0709 -4.42385 -16.584
ltibia 70.8831
lfoot -12.7101 9.91946
ltoes -18.4052
97
root 0.605207 14.9141 3.66751 39.1146 -84.7955 -39.8913
lowerback 14.8 0.769762 1.83846
upperback 12.1732 0.389119 -0.105782
thorax 4.68125 -0.0130764 -1.20997
lowerneck -3.96639 4.89938 9.38146
upperneck 12.7527 6.51674 -6.9749
head 5.01352 3.18317 -3.32895
rclavicle -1.31198e-014 -1.98785e-015
rhumerus -29.8063 6.71532 -88.0832
rradius 52.6243
rwrist -28.4758
rhand -19.4519 -0.204835
rfingers 7.12502
rthumb 6.86894 -30.0734
lclavicle -1.31198e-014 -1.98785e-015
lhumerus 5.6253 -26.4684 83.6204
lradius 33.832
lwrist 10.6637
lhand -11.6001 12.7229
lfingers 7.12502
lthumb 14.4423 42.2003
rfemur -18.2573 5.51665 31.113
rtibia 36.776
rfoot -20.796 -16.8701
rtoes -13.2467
lfemur -32.9829 -6.09592 -16.172
ltibia 67.8081
lfoot -13.2937 10.4762
ltoes -17.5701
98
root 0.366714 14.9029 3.70394 43.3198 -85.3635 -43.764
lowerback 15.1627 0.860005 1.44893
upperback 12.3768 0.438858 -0.330706
thorax 4.7121 -0.018135 -1.23694
lowerneck -3.73552 5.03216 9.5565
upperneck 12.4166 6.68992 -6.97863
head 4.89263 3.28067 -3.35211
rclavicle 1.35174e-014 4.77083e-015
rhumerus -29.7377 6.99592 -88.1768
rradius 54.4678
rwrist -30.1953
rhand -19.106 -0.00778586
rfingers 7.12502
rthumb 7.20286 -29.8652
lclavicle 1.35174e-014 4.77083e-015
lhumerus 6.27324 -26.1905 83.0364
lradius 33.719
lwrist 10.6877
lhand -11.9608 12.5316
lfingers 7.12502
lthumb 14.0947 42.0336
rfemur -17.922 5.56824 31.0727
rtibia 37.4159
rfoot -21.4596 -16.6275
rtoes -13.3014
lfemur -34.5038 -7.61848 -15.7655
ltibia 64.0332
lfoot -13.5541 11.2222
ltoes -16.6957
99
root 0.12921 14.9025 3.73971 48.7275 -85.9859 -48.7819
lowerback 15.4726 0.971426 0.986303
upperback 12.5572 0.507971 -0.602288
thorax 4.74589 -0.0162068 -1.27465
lowerneck -3.47624 5.1654 9.69785
upperneck 12.0607 6.86054 -6.91394
head 4.75789 3.37909 -3.34987
rclavicle -1.70955e-014 1.59028e-015
rhumerus -29.7168 7.07794 -88.2523
rradius 56.3294
rwrist -32.5667
rhand -18.5635 -0.139445
rfingers 7.12502
rthumb 7.72644 -29.9783
lclavicle -1.70955e-014 1.59028e-015
lhumerus 6.95236 -25.9075 82.4009
lradius 33.618
lwrist 10.7505
lhand -12.3655 12.311
lfingers 7.12502
lthumb 13.7048 41.8397
rfemur -17.5725 5.5536 30.9552
rtibia 37.9109
rfoot -21.9449 -16.4279
rtoes -13.6544
lfemur -35.6742 -8.89724 -15.2977
ltibia 59.7137
lfoot -13.4687 12.1873
ltoes -16.0003
100
root -0.103735 14.9077 3.77409 57.5688 -86.5775 -57.1663
lowerback 15.7561 1.10189 0.514197
upperback 12.7003 0.600381 -0.89079
thorax 4.75409 -0.0023237 -1.32802
lowerneck -3.15661 5.3031 9.83224
upperneck 11.667 7.04043 -6.83006
head 4.60184 3.48307 -3.34236
rclavicle -1.15295e-014 -3.97569e-015
rhumerus -29.7333 6.94499 -88.303
rradius 58.1859
rwrist -35.592
rhand -17.7949 -0.725003
rfingers 7.12502
rthumb 8.46822 -30.5352
lclavicle -1.15295e-014 -3.97569e-015
lhumerus 7.65864 -25.6003 81.7109
lradius 33.5182
lwrist 10.8281
lhand -12.656 12.2642
lfingers 7.12502
lthumb 13.4248 41.8116
rfemur -17.2774 5.49375 30.8782
rtibia 38.3027
rfoot -22.2876 -16.2336
rtoes -14.0733
lfemur -36.5878 -9.89502 -14.6857
ltibia 55.0619
lfoot -13.1343 13.4008
ltoes -15.5913
101
root -0.330075 14.9114 3.80765 71.4942 -87.0309 -70.6012
lowerback 16.0619 1.24003 0.043584
upperback 12.8168 0.699373 -1.19197
thorax 4.72239 0.0148799 -1.39743
lowerneck -2.7561 5.4532 9.99099
upperneck 11.1987 7.24612 -6.78226
head 4.41438 3.59961 -3.35185
rclavicle 1.39149e-014 -2.38542e-014
rhumerus -29.807 6.59946 -88.3284
rradius 60.076
rwrist -39.1099
rhand -16.8803 -1.80186
rfingers 7.12502
rthumb 9.35084 -31.5745
lclavicle 1.39149e-014 -2.38542e-014
lhumerus 8.39759 -25.2391 80.9479
lradius 33.4013
lwrist 10.8763
lhand -12.8466 12.3941
lfingers 7.12502
lthumb 13.2411 41.9536
rfemur -17.0759 5.36484 30.871
rtibia 38.7019
rfoot -22.5827 -15.9357
rtoes -14.4274
lfemur -37.2621 -10.6522 -13.9474
ltibia 50.3256
lfoot -12.7371 14.8726
ltoes -15.1587
102
root -0.549491 14.9099 3.84109 90.4335 -87.2095 -89.0878
lowerback 16.4496 1.37836 -0.432347
upperback 12.9396 0.787236 -1.51087
thorax 4.65622 0.0243056 -1.48343
lowerneck -2.2815 5.62681 10.1913
upperneck 10.6251 7.49499 -6.80557
head 4.19116 3.73645 -3.39135
rclavicle -2.82274e-014 -7.95139e-015
rhumerus -29.9165 6.11384 -88.3431
rradius 61.9691
rwrist -42.8193
rhand -16.0332 -3.17919
rfingers 7.12502
rthumb 10.1682 -32.9135
lclavicle -2.82274e-014 -7.95139e-015
lhumerus 9.18857 -24.7923 80.0876
lradius 33.2565
lwrist 10.8776
lhand -12.9179 12.7228
lfingers 7.12502
lthumb 13.1723 42.2867
rfemur -16.9584 5.16646 30.9271
rtibia 39.252
rfoot -22.8428 -15.5332
rtoes -14.5281
lfemur -37.6946 -11.2556 -13.1238
ltibia 45.7575
lfoot -12.4718 16.629
ltoes -14.2457
